<svg xmlns="http://www.w3.org/2000/svg" width="350" height="350" viewBox="0 0 350 350">
<g>
<path d="M 178.95 280.93 C177.32,288.86 175.77,295.56 175.51,295.82 C174.79,296.55 174.62,295.82 166.04,254.00 C161.58,232.27 157.60,213.46 157.19,212.18 C156.47,209.90 156.35,209.94 148.48,215.09 C117.75,235.22 112.00,238.85 112.00,238.11 C112.00,237.66 118.30,227.72 126.00,216.04 C133.70,204.35 140.00,194.48 140.00,194.11 C140.00,193.74 123.01,189.92 102.25,185.62 C81.49,181.32 62.36,177.36 59.75,176.82 C54.04,175.63 53.66,174.46 58.75,173.71 C60.81,173.40 71.28,171.31 82.00,169.05 C92.72,166.80 108.03,163.60 116.00,161.95 C123.97,160.29 132.87,158.39 135.77,157.72 L 141.04 156.50 L 127.21 135.50 C125.88,133.47 124.66,131.62 123.54,129.92 C113.88,115.26 111.88,112.22 112.22,111.93 C112.31,111.85 112.56,111.96 112.88,112.10 C113.02,112.17 113.17,112.23 113.33,112.29 C114.24,112.64 123.49,118.53 133.89,125.38 C136.43,127.05 138.70,128.55 140.71,129.88 C151.68,137.16 155.26,139.53 156.73,138.59 C157.72,137.97 157.76,135.86 158.43,132.75 C160.54,123.00 166.31,95.32 170.59,74.50 C174.28,56.52 174.98,53.65 175.52,54.18 C175.70,54.37 179.77,73.41 184.56,96.51 C189.35,119.60 193.61,138.88 194.02,139.34 C194.43,139.80 204.61,133.66 216.64,125.71 C228.66,117.76 238.63,111.36 238.80,111.50 C238.96,111.64 233.21,120.70 226.02,131.63 C212.05,152.85 210.36,155.70 211.22,156.56 C211.53,156.86 230.14,160.92 252.58,165.58 C275.03,170.25 293.61,174.28 293.88,174.55 C295.15,175.82 290.97,177.04 272.00,180.91 C218.91,191.74 211.00,193.48 211.00,194.28 C211.00,194.76 216.29,203.23 222.75,213.11 C229.21,222.99 235.52,232.63 236.76,234.53 C238.01,236.44 238.64,238.00 238.17,238.00 C237.40,238.00 231.62,234.30 204.37,216.38 C199.89,213.43 195.58,210.78 194.79,210.47 C193.67,210.04 192.99,211.86 191.74,218.71 C190.85,223.54 188.28,236.27 186.03,247.00 C183.77,257.73 180.59,272.99 178.95,280.93 ZM 175.07 239.25 C175.11,264.14 175.47,277.77 176.06,276.50 C176.57,275.40 180.56,257.19 184.93,236.03 C190.83,207.47 192.60,197.22 191.78,196.24 C190.95,195.23 191.43,194.15 193.79,191.71 C197.44,187.94 200.00,182.30 200.00,178.03 L 200.00 175.00 L 239.17 175.00 C260.71,175.00 278.13,174.79 277.87,174.54 C277.62,174.28 259.68,170.40 238.02,165.91 C207.34,159.56 198.23,158.00 196.86,158.86 C195.46,159.73 194.82,159.59 193.79,158.17 C191.36,154.80 186.31,151.85 180.91,150.65 L 175.50 149.45 L 174.50 71.50 L 166.18 111.81 C160.05,141.47 158.14,152.46 158.94,153.42 C159.75,154.41 159.15,155.67 156.48,158.59 C153.37,161.99 150.00,169.83 150.00,173.68 C150.00,174.75 142.59,175.00 110.83,175.00 C89.29,175.00 71.92,175.25 72.22,175.55 C72.53,175.86 90.71,179.86 112.64,184.44 C139.86,190.13 152.89,192.46 153.73,191.78 C154.59,191.09 156.12,191.72 158.89,193.91 C163.52,197.58 168.92,200.00 172.47,200.00 L 175.00 200.00 ZM 169.38 288.20 C169.10,288.64 168.35,288.95 167.69,288.88 C134.42,285.47 105.16,269.66 85.80,244.61 C73.37,228.52 64.52,206.91 62.47,187.65 C61.81,181.40 61.90,180.83 63.54,181.15 C64.98,181.43 65.68,183.56 67.12,192.14 C68.11,197.99 70.01,205.87 71.35,209.64 C74.17,217.56 78.76,228.00 79.43,228.00 C80.06,228.00 87.00,223.87 87.00,223.49 C87.00,223.33 85.62,220.11 83.93,216.34 C80.44,208.57 77.12,197.17 76.05,189.27 C75.37,184.25 75.45,183.92 77.35,184.20 C79.02,184.45 79.58,185.71 80.56,191.50 C87.24,230.86 119.63,263.36 158.93,270.14 C164.93,271.17 166.94,272.20 166.98,274.25 C167.03,276.55 150.66,272.98 138.14,267.96 C132.71,265.78 127.77,264.00 127.16,264.00 C126.07,264.00 123.00,269.03 123.00,270.82 C123.00,273.43 147.28,281.82 160.97,283.93 C167.96,285.01 170.54,286.32 169.38,288.20 ZM 64.56 168.23 C62.20,169.86 61.80,168.70 62.48,162.25 C64.56,142.77 74.04,119.87 86.48,104.33 C105.12,81.03 133.72,65.37 162.84,62.50 C169.94,61.80 170.15,61.85 169.14,63.74 C168.35,65.21 166.63,65.86 162.29,66.32 C149.86,67.64 122.99,76.57 123.00,79.39 C123.01,80.00 123.89,81.95 124.97,83.72 L 126.94 86.94 L 133.22 84.14 C141.01,80.65 151.91,77.36 158.50,76.49 C161.25,76.13 164.29,75.61 165.25,75.35 C166.21,75.08 167.00,75.31 167.00,75.86 C167.00,78.08 163.79,79.80 158.36,80.47 C150.08,81.51 136.87,86.41 126.50,92.30 C111.78,100.65 96.74,116.72 88.65,132.72 C85.55,138.86 81.28,152.38 80.44,158.77 C79.65,164.71 78.71,166.48 76.74,165.73 C75.48,165.25 75.44,164.19 76.49,158.33 C78.09,149.32 80.60,141.08 84.12,133.22 C85.71,129.70 87.00,126.64 87.00,126.43 C87.00,125.76 81.15,123.00 79.73,123.00 C76.79,123.00 69.03,144.84 66.88,159.13 C66.19,163.73 65.15,167.83 64.56,168.23 ZM 288.43 163.69 C288.75,165.99 288.64,168.10 288.20,168.37 C286.26,169.58 284.81,166.78 283.87,160.02 C281.99,146.49 273.84,123.00 271.01,123.00 C270.40,123.00 268.53,123.71 266.85,124.58 C265.76,125.14 265.00,125.47 264.64,126.04 C263.92,127.20 264.81,129.36 267.77,136.54 C267.96,137.01 268.16,137.49 268.37,138.00 C272.02,146.87 275.60,162.00 274.63,164.51 C273.49,167.50 271.16,164.79 270.47,159.68 C268.69,146.41 260.67,127.91 251.58,116.10 C237.65,98.00 213.60,83.49 192.50,80.47 C189.75,80.07 186.94,79.30 186.25,78.75 C179.15,73.09 202.58,77.18 218.19,84.32 L 223.88 86.92 L 225.94 83.59 C227.07,81.76 228.00,79.85 228.00,79.33 C228.00,78.27 218.28,73.79 209.70,70.90 C206.51,69.83 199.31,68.18 193.70,67.24 C184.16,65.65 182.05,64.82 182.02,62.61 C181.99,61.25 193.80,62.76 204.56,65.49 C215.88,68.36 232.20,75.90 241.58,82.60 C245.26,85.22 251.42,90.54 255.27,94.43 C274.44,113.75 284.43,134.62 288.43,163.69 ZM 204.45 284.96 C194.40,287.55 183.10,288.97 182.34,287.74 C181.25,285.99 184.00,284.64 190.23,283.88 C202.35,282.39 228.00,273.46 228.00,270.72 C228.00,270.18 227.09,268.26 225.97,266.45 L 223.94 263.16 L 216.69 266.51 C209.29,269.93 197.93,273.29 189.51,274.55 C185.25,275.19 184.84,275.08 185.17,273.38 C185.45,271.92 187.22,271.14 193.01,269.92 C204.03,267.59 210.53,265.29 219.74,260.45 C246.26,246.54 264.82,221.36 270.03,192.24 C271.18,185.76 273.06,182.73 274.82,184.49 C275.99,185.65 271.65,204.17 268.36,212.10 C268.12,212.68 267.89,213.23 267.67,213.75 C264.91,220.39 264.01,222.54 264.71,223.83 C265.11,224.54 266.00,224.98 267.36,225.78 C269.99,227.34 271.11,227.56 271.82,226.68 C275.69,221.83 281.26,205.30 283.62,191.64 C285.05,183.31 286.04,181.06 288.28,181.02 C289.29,181.00 288.30,189.08 285.95,200.19 C277.46,240.33 244.47,274.65 204.45,284.96 ZM 187.19 192.47 C175.33,200.27 159.83,195.03 155.40,181.71 C149.83,164.93 165.61,149.72 182.71,155.40 C198.54,160.66 201.27,183.22 187.19,192.47 ZM 171.13 191.86 C182.96,195.30 195.24,183.02 192.00,170.99 C189.70,162.47 182.10,157.28 173.37,158.26 C164.99,159.21 158.00,166.82 158.00,175.00 C158.00,182.34 163.75,189.71 171.13,191.86 ZM 180.68 187.06 C175.53,189.40 175.47,189.40 170.27,187.04 C156.73,180.89 161.06,162.00 176.02,162.00 C189.57,162.00 193.18,181.38 180.68,187.06 ZM 130.80 138.04 L 142.50 156.07 L 146.88 155.46 C149.29,155.12 151.92,154.59 152.72,154.28 C153.74,153.88 149.05,148.56 137.36,136.86 C128.10,127.59 120.20,120.00 119.81,120.00 C119.42,120.00 124.36,128.12 130.80,138.04 ZM 195.22 147.75 C195.80,150.64 196.55,153.00 196.89,153.00 C197.24,153.00 205.16,145.35 214.50,136.00 C223.84,126.65 231.16,119.00 230.77,119.00 C230.26,119.00 195.76,141.12 194.34,142.36 C194.25,142.44 194.65,144.86 195.22,147.75 ZM 136.48 214.02 C127.15,223.36 119.90,231.00 120.36,231.00 C120.82,231.00 129.08,225.81 138.71,219.46 L 156.22 207.92 L 155.53 203.21 C155.15,200.62 154.52,198.17 154.14,197.77 C153.75,197.37 145.81,204.68 136.48,214.02 ZM 213.08 212.58 C222.10,221.61 229.81,229.00 230.22,229.00 C230.96,229.00 224.62,218.84 213.79,202.70 C209.48,196.28 207.43,194.03 206.19,194.36 C205.26,194.62 202.74,195.12 200.59,195.49 L 196.67 196.15 ZM 27.73 179.00 C26.69,182.02 25.66,184.67 25.44,184.89 C24.95,185.38 23.52,181.63 21.42,174.29 C20.51,171.10 19.31,167.94 18.76,167.25 C18.00,166.31 18.46,166.00 20.63,166.00 C23.08,166.00 23.53,166.43 23.70,168.89 C23.81,170.48 24.51,173.26 25.25,175.09 L 26.61 178.40 L 28.55 172.61 C29.62,169.43 30.90,166.75 31.39,166.66 C31.88,166.57 33.18,168.86 34.27,171.75 C36.19,176.81 38.00,178.62 38.00,175.50 C38.00,174.68 38.41,174.00 38.91,174.00 C39.41,174.00 39.09,176.26 38.21,179.02 C37.33,181.78 36.16,183.89 35.62,183.71 C35.08,183.53 33.89,181.15 32.98,178.44 C32.07,175.72 30.95,173.50 30.48,173.50 C30.01,173.50 28.78,175.98 27.73,179.00 ZM 325.92 182.75 C325.15,184.77 324.39,185.00 318.53,185.00 C314.84,185.00 312.00,184.56 312.00,184.00 C312.00,183.45 312.45,183.00 313.00,183.00 C314.45,183.00 314.27,168.67 312.80,167.20 C311.87,166.27 313.09,166.00 318.30,166.00 C324.59,166.00 325.00,166.14 324.97,168.25 C324.94,170.33 324.84,170.37 323.61,168.75 C322.88,167.79 321.09,167.00 319.64,167.00 C317.29,167.00 317.00,167.38 317.00,170.50 C317.00,173.57 317.31,174.00 319.50,174.00 C320.88,174.00 322.00,173.55 322.00,173.00 C322.00,172.45 322.45,172.00 323.00,172.00 C323.55,172.00 324.00,173.10 324.00,174.44 C324.00,176.67 323.71,176.83 320.43,176.29 C316.87,175.72 316.85,175.73 317.18,179.11 C317.46,182.03 317.91,182.55 320.45,182.84 C322.41,183.06 323.84,182.58 324.69,181.41 C326.35,179.14 327.01,179.86 325.92,182.75 ZM 171.01 41.03 C172.12,41.73 171.63,41.97 169.13,41.98 C166.29,42.00 165.95,41.77 166.96,40.55 C167.73,39.61 168.04,36.42 167.83,31.55 C167.41,21.83 168.71,21.67 176.45,30.48 C180.89,35.55 182.07,37.56 181.82,39.70 C181.52,42.29 181.22,42.08 176.23,35.72 C173.34,32.02 170.64,29.00 170.23,29.00 C168.75,29.00 169.46,40.05 171.01,41.03 ZM 179.07 327.96 C175.74,329.74 171.19,329.22 169.95,326.91 C168.39,323.98 169.72,323.15 171.62,325.87 C173.62,328.72 177.37,328.39 177.81,325.31 C178.03,323.80 177.26,322.59 175.31,321.38 C171.70,319.14 170.00,317.06 170.00,314.88 C170.00,312.66 172.65,309.99 174.82,310.03 C176.35,310.06 176.34,310.15 174.75,311.08 C171.95,312.71 172.77,315.29 177.04,318.24 C180.15,320.39 181.00,321.62 181.00,323.96 C181.00,325.87 180.31,327.30 179.07,327.96 ZM 43.41 166.77 C42.82,167.17 41.87,168.34 41.30,169.37 C40.37,171.09 40.24,171.03 39.78,168.62 C39.34,166.33 39.61,166.00 41.89,166.02 C43.32,166.02 44.01,166.36 43.41,166.77 Z" fill="rgb(29,29,28)"/>
<path d="M 181.04 41.21 C181.56,41.42 181.69,40.83 181.82,39.70 C182.05,37.70 181.04,35.81 177.29,31.45 L 180.95 35.50 L 180.98 30.25 C180.99,27.36 180.55,25.00 180.00,25.00 C179.45,25.00 179.00,24.55 179.00,24.00 C179.00,23.45 180.69,23.01 182.75,23.03 C186.08,23.06 186.31,23.21 184.75,24.39 C183.34,25.47 183.00,27.28 183.00,33.86 C183.00,38.34 182.59,42.00 182.09,42.00 C181.94,42.00 181.56,41.71 181.04,41.21 ZM 223.70 159.46 C246.57,164.43 293.05,174.00 295.05,174.00 C296.12,174.00 297.00,174.45 297.00,175.00 C297.00,175.55 296.65,176.00 296.22,176.00 C295.90,176.00 290.55,177.05 283.14,178.56 C292.65,176.46 294.85,175.52 293.88,174.55 C293.61,174.28 275.03,170.25 252.58,165.58 C241.41,163.26 231.19,161.09 223.70,159.46 ZM 221.19 191.45 C215.12,192.84 211.03,193.96 211.00,194.28 C211.02,193.88 212.96,193.26 221.19,191.45 ZM 169.19 24.06 C167.85,24.08 167.61,26.55 167.83,31.55 C167.61,26.44 167.83,24.00 169.19,24.06 Z" fill="rgb(95,95,95)"/>
<path d="M 0.00 175.00 L 0.00 0.00 L 175.00 0.00 L 350.00 0.00 L 350.00 175.00 L 350.00 350.00 L 175.00 350.00 L 0.00 350.00 L 0.00 175.00 ZM 179.07 327.96 C180.31,327.30 181.00,325.87 181.00,323.96 C181.00,321.62 180.15,320.39 177.04,318.24 C172.77,315.29 171.95,312.71 174.75,311.08 C176.34,310.15 176.35,310.06 174.82,310.03 C172.65,309.99 170.00,312.66 170.00,314.88 C170.00,317.06 171.70,319.14 175.31,321.38 C177.26,322.59 178.03,323.80 177.81,325.31 C177.37,328.39 173.62,328.72 171.62,325.87 C169.72,323.15 168.39,323.98 169.95,326.91 C171.19,329.22 175.74,329.74 179.07,327.96 ZM 178.95 280.93 C180.59,272.99 183.77,257.73 186.03,247.00 C188.28,236.27 190.85,223.54 191.74,218.71 C192.99,211.86 193.67,210.04 194.79,210.47 C195.58,210.78 199.89,213.43 204.37,216.38 C231.62,234.30 237.40,238.00 238.17,238.00 C238.64,238.00 238.01,236.44 236.76,234.53 C235.52,232.63 229.21,222.99 222.75,213.11 C216.29,203.23 211.00,194.76 211.00,194.28 C211.00,193.80 220.34,191.50 231.75,189.16 C243.16,186.82 262.16,182.90 273.97,180.45 C285.77,178.00 295.78,176.00 296.22,176.00 C296.65,176.00 297.00,175.55 297.00,175.00 C297.00,174.45 296.12,174.00 295.05,174.00 C292.41,174.00 211.92,157.25 211.22,156.56 C210.36,155.70 212.05,152.85 226.02,131.63 C233.21,120.70 238.96,111.64 238.80,111.50 C238.63,111.36 228.66,117.76 216.64,125.71 C204.61,133.66 194.43,139.80 194.02,139.34 C193.61,138.88 189.35,119.60 184.56,96.51 C179.77,73.41 175.70,54.37 175.52,54.18 C174.98,53.65 174.28,56.52 170.59,74.50 C166.31,95.32 160.54,123.00 158.43,132.75 C156.57,141.37 159.56,142.27 133.89,125.38 C123.49,118.53 114.24,112.64 113.33,112.29 C111.31,111.52 110.04,109.40 127.21,135.50 L 141.04 156.50 L 135.77 157.72 C132.87,158.39 123.97,160.29 116.00,161.95 C108.03,163.60 92.72,166.80 82.00,169.05 C71.28,171.31 60.81,173.40 58.75,173.71 C53.66,174.46 54.04,175.63 59.75,176.82 C62.36,177.36 81.49,181.32 102.25,185.62 C123.01,189.92 140.00,193.74 140.00,194.11 C140.00,194.48 133.70,204.35 126.00,216.04 C118.30,227.72 112.00,237.66 112.00,238.11 C112.00,238.85 117.75,235.22 148.48,215.09 C156.35,209.94 156.47,209.90 157.19,212.18 C157.60,213.46 161.58,232.27 166.04,254.00 C174.62,295.82 174.79,296.55 175.51,295.82 C175.77,295.56 177.32,288.86 178.95,280.93 ZM 169.38 288.20 C170.54,286.32 167.96,285.01 160.97,283.93 C147.28,281.82 123.00,273.43 123.00,270.82 C123.00,269.03 126.07,264.00 127.16,264.00 C127.77,264.00 132.71,265.78 138.14,267.96 C150.66,272.98 167.03,276.55 166.98,274.25 C166.94,272.20 164.93,271.17 158.93,270.14 C119.63,263.36 87.24,230.86 80.56,191.50 C79.58,185.71 79.02,184.45 77.35,184.20 C75.45,183.92 75.37,184.25 76.05,189.27 C77.12,197.17 80.44,208.57 83.93,216.34 C85.62,220.11 87.00,223.33 87.00,223.49 C87.00,223.87 80.06,228.00 79.43,228.00 C78.76,228.00 74.17,217.56 71.35,209.64 C70.01,205.87 68.11,197.99 67.12,192.14 C65.68,183.56 64.98,181.43 63.54,181.15 C61.90,180.83 61.81,181.40 62.47,187.65 C64.52,206.91 73.37,228.52 85.80,244.61 C105.16,269.66 134.42,285.47 167.69,288.88 C168.35,288.95 169.10,288.64 169.38,288.20 ZM 204.45 284.96 C244.47,274.65 277.46,240.33 285.95,200.19 C288.30,189.08 289.29,181.00 288.28,181.02 C286.04,181.06 285.05,183.31 283.62,191.64 C281.26,205.30 275.69,221.83 271.82,226.68 C271.11,227.56 269.99,227.34 267.36,225.78 C263.40,223.45 263.35,224.17 268.36,212.10 C271.65,204.17 275.99,185.65 274.82,184.49 C273.06,182.73 271.18,185.76 270.03,192.24 C264.82,221.36 246.26,246.54 219.74,260.45 C210.53,265.29 204.03,267.59 193.01,269.92 C187.22,271.14 185.45,271.92 185.17,273.38 C184.84,275.08 185.25,275.19 189.51,274.55 C197.93,273.29 209.29,269.93 216.69,266.51 L 223.94 263.16 L 225.97 266.45 C227.09,268.26 228.00,270.18 228.00,270.72 C228.00,273.46 202.35,282.39 190.23,283.88 C184.00,284.64 181.25,285.99 182.34,287.74 C183.10,288.97 194.40,287.55 204.45,284.96 ZM 27.73 179.00 C28.78,175.98 30.01,173.50 30.48,173.50 C30.95,173.50 32.07,175.72 32.98,178.44 C33.89,181.15 35.08,183.53 35.62,183.71 C36.16,183.89 37.33,181.78 38.21,179.02 C39.09,176.26 39.41,174.00 38.91,174.00 C38.41,174.00 38.00,174.68 38.00,175.50 C38.00,178.62 36.19,176.81 34.27,171.75 C33.18,168.86 31.88,166.57 31.39,166.66 C30.90,166.75 29.62,169.43 28.55,172.61 L 26.61 178.40 L 25.25 175.09 C24.51,173.26 23.81,170.48 23.70,168.89 C23.53,166.43 23.08,166.00 20.63,166.00 C18.46,166.00 18.00,166.31 18.76,167.25 C19.31,167.94 20.51,171.10 21.42,174.29 C23.52,181.63 24.95,185.38 25.44,184.89 C25.66,184.67 26.69,182.02 27.73,179.00 ZM 325.92 182.75 C327.01,179.86 326.35,179.14 324.69,181.41 C323.84,182.58 322.41,183.06 320.45,182.84 C317.91,182.55 317.46,182.03 317.18,179.11 C316.85,175.73 316.87,175.72 320.43,176.29 C323.71,176.83 324.00,176.67 324.00,174.44 C324.00,173.10 323.55,172.00 323.00,172.00 C322.45,172.00 322.00,172.45 322.00,173.00 C322.00,173.55 320.88,174.00 319.50,174.00 C317.31,174.00 317.00,173.57 317.00,170.50 C317.00,167.38 317.29,167.00 319.64,167.00 C321.09,167.00 322.88,167.79 323.61,168.75 C324.84,170.37 324.94,170.33 324.97,168.25 C325.00,166.14 324.59,166.00 318.30,166.00 C313.09,166.00 311.87,166.27 312.80,167.20 C314.27,168.67 314.45,183.00 313.00,183.00 C312.45,183.00 312.00,183.45 312.00,184.00 C312.00,184.56 314.84,185.00 318.53,185.00 C324.39,185.00 325.15,184.77 325.92,182.75 ZM 43.41 166.77 C44.01,166.36 43.32,166.02 41.89,166.02 C39.61,166.00 39.34,166.33 39.78,168.62 C40.24,171.03 40.37,171.09 41.30,169.37 C41.87,168.34 42.82,167.17 43.41,166.77 ZM 64.56 168.23 C65.15,167.83 66.19,163.73 66.88,159.13 C69.03,144.84 76.79,123.00 79.73,123.00 C81.15,123.00 87.00,125.76 87.00,126.43 C87.00,126.64 85.71,129.70 84.12,133.22 C80.60,141.08 78.09,149.32 76.49,158.33 C75.44,164.19 75.48,165.25 76.74,165.73 C78.71,166.48 79.65,164.71 80.44,158.77 C81.28,152.38 85.55,138.86 88.65,132.72 C96.74,116.72 111.78,100.65 126.50,92.30 C136.87,86.41 150.08,81.51 158.36,80.47 C163.79,79.80 167.00,78.08 167.00,75.86 C167.00,75.31 166.21,75.08 165.25,75.35 C164.29,75.61 161.25,76.13 158.50,76.49 C151.91,77.36 141.01,80.65 133.22,84.14 L 126.94 86.94 L 124.97 83.72 C123.89,81.95 123.01,80.00 123.00,79.39 C122.99,76.57 149.86,67.64 162.29,66.32 C166.63,65.86 168.35,65.21 169.14,63.74 C170.15,61.85 169.94,61.80 162.84,62.50 C133.72,65.37 105.12,81.03 86.48,104.33 C74.04,119.87 64.56,142.77 62.48,162.25 C61.80,168.70 62.20,169.86 64.56,168.23 ZM 288.43 163.69 C284.43,134.62 274.44,113.75 255.27,94.43 C251.42,90.54 245.26,85.22 241.58,82.60 C232.20,75.90 215.88,68.36 204.56,65.49 C193.80,62.76 181.99,61.25 182.02,62.61 C182.05,64.82 184.16,65.65 193.70,67.24 C199.31,68.18 206.51,69.83 209.70,70.90 C218.28,73.79 228.00,78.27 228.00,79.33 C228.00,79.85 227.07,81.76 225.94,83.59 L 223.88 86.92 L 218.19 84.32 C202.58,77.18 179.15,73.09 186.25,78.75 C186.94,79.30 189.75,80.07 192.50,80.47 C213.60,83.49 237.65,98.00 251.58,116.10 C260.67,127.91 268.69,146.41 270.47,159.68 C271.16,164.79 273.49,167.50 274.63,164.51 C275.60,162.00 272.02,146.87 268.37,138.00 C263.33,125.76 263.40,126.36 266.85,124.58 C268.53,123.71 270.40,123.00 271.01,123.00 C273.84,123.00 281.99,146.49 283.87,160.02 C284.81,166.78 286.26,169.58 288.20,168.37 C288.64,168.10 288.75,165.99 288.43,163.69 ZM 171.01 41.03 C169.46,40.05 168.75,29.00 170.23,29.00 C170.64,29.00 173.26,31.92 176.07,35.50 C178.88,39.08 181.59,42.00 182.09,42.00 C182.59,42.00 183.00,38.34 183.00,33.86 C183.00,27.28 183.34,25.47 184.75,24.39 C186.31,23.21 186.08,23.06 182.75,23.03 C180.69,23.01 179.00,23.45 179.00,24.00 C179.00,24.55 179.45,25.00 180.00,25.00 C180.55,25.00 180.99,27.36 180.98,30.25 L 180.95 35.50 L 175.73 29.72 C168.53,21.77 167.41,22.03 167.83,31.55 C168.04,36.42 167.73,39.61 166.96,40.55 C165.95,41.77 166.29,42.00 169.13,41.98 C171.63,41.97 172.12,41.73 171.01,41.03 ZM 175.07 239.25 L 175.00 200.00 L 172.47 200.00 C168.92,200.00 163.52,197.58 158.89,193.91 C156.12,191.72 154.59,191.09 153.73,191.78 C152.89,192.46 139.86,190.13 112.64,184.44 C90.71,179.86 72.53,175.86 72.22,175.55 C71.92,175.25 89.29,175.00 110.83,175.00 C142.59,175.00 150.00,174.75 150.00,173.68 C150.00,169.83 153.37,161.99 156.48,158.59 C159.15,155.67 159.75,154.41 158.94,153.42 C158.14,152.46 160.05,141.47 166.18,111.81 L 174.50 71.50 L 175.00 110.48 L 175.50 149.45 L 180.91 150.65 C186.31,151.85 191.36,154.80 193.79,158.17 C194.82,159.59 195.46,159.73 196.86,158.86 C198.23,158.00 207.34,159.56 238.02,165.91 C259.68,170.40 277.62,174.28 277.87,174.54 C278.13,174.79 260.71,175.00 239.17,175.00 L 200.00 175.00 L 200.00 178.03 C200.00,182.30 197.44,187.94 193.79,191.71 C191.43,194.15 190.95,195.23 191.78,196.24 C192.60,197.22 190.83,207.47 184.93,236.03 C180.56,257.19 176.57,275.40 176.06,276.50 C175.47,277.77 175.11,264.14 175.07,239.25 ZM 187.19 192.47 C201.27,183.22 198.54,160.66 182.71,155.40 C165.61,149.72 149.83,164.93 155.40,181.71 C159.83,195.03 175.33,200.27 187.19,192.47 ZM 136.48 214.02 C145.81,204.68 153.75,197.37 154.14,197.77 C154.52,198.17 155.15,200.62 155.53,203.21 L 156.22 207.92 L 138.71 219.46 C129.08,225.81 120.82,231.00 120.36,231.00 C119.90,231.00 127.15,223.36 136.48,214.02 ZM 213.08 212.58 L 196.67 196.15 L 200.59 195.49 C202.74,195.12 205.26,194.62 206.19,194.36 C207.43,194.03 209.48,196.28 213.79,202.70 C224.62,218.84 230.96,229.00 230.22,229.00 C229.81,229.00 222.10,221.61 213.08,212.58 ZM 130.80 138.04 C124.36,128.12 119.42,120.00 119.81,120.00 C120.20,120.00 128.10,127.59 137.36,136.86 C149.05,148.56 153.74,153.88 152.72,154.28 C151.92,154.59 149.29,155.12 146.88,155.46 L 142.50 156.07 L 130.80 138.04 ZM 195.22 147.75 C194.65,144.86 194.25,142.44 194.34,142.36 C195.76,141.12 230.26,119.00 230.77,119.00 C231.16,119.00 223.84,126.65 214.50,136.00 C205.16,145.35 197.24,153.00 196.89,153.00 C196.55,153.00 195.80,150.64 195.22,147.75 ZM 171.13 191.86 C163.75,189.71 158.00,182.34 158.00,175.00 C158.00,166.82 164.99,159.21 173.37,158.26 C182.10,157.28 189.70,162.47 192.00,170.99 C195.24,183.02 182.96,195.30 171.13,191.86 ZM 180.68 187.06 C193.18,181.38 189.57,162.00 176.02,162.00 C161.06,162.00 156.73,180.89 170.27,187.04 C175.47,189.40 175.53,189.40 180.68,187.06 Z" fill="rgb(254,254,254)"/>
</g>
</svg>